<svg width="38" height="43" viewBox="0 0 38 43" fill="none" xmlns="http://www.w3.org/2000/svg">
<path d="M24.7361 20.1665C24.7361 21.4436 23.794 22.4905 22.6006 22.4905C21.4282 22.4905 20.4651 21.4436 20.4651 20.1665C20.4651 18.8894 21.4073 17.8426 22.6006 17.8426C23.794 17.8426 24.7361 18.8894 24.7361 20.1665ZM14.9589 17.8426C13.7655 17.8426 12.8234 18.8894 12.8234 20.1665C12.8234 21.4436 13.7864 22.4905 14.9589 22.4905C16.1522 22.4905 17.0944 21.4436 17.0944 20.1665C17.1153 18.8894 16.1522 17.8426 14.9589 17.8426ZM37.0676 4.58992V42.1497C31.7931 37.4886 33.48 39.0315 27.3532 33.3355L28.4628 37.2087H4.72102C2.35522 37.2087 0.429077 35.2826 0.429077 32.8958V4.58992C0.429077 2.20318 2.35522 0.277039 4.72102 0.277039H32.7757C35.1415 0.277039 37.0676 2.20318 37.0676 4.58992ZM31.1008 24.4375C31.1008 17.6961 28.0859 12.2317 28.0859 12.2317C25.0711 9.97055 22.2028 10.0334 22.2028 10.0334L21.9097 10.3683C25.4689 11.457 27.1229 13.0273 27.1229 13.0273C22.1496 10.3015 16.3076 10.301 11.4834 12.4201C10.7088 12.776 10.2482 13.0273 10.2482 13.0273C10.2482 13.0273 11.9859 11.3733 15.7545 10.2846L15.5451 10.0334C15.5451 10.0334 12.6768 9.97055 9.66199 12.2317C9.66199 12.2317 6.64716 17.6961 6.64716 24.4375C6.64716 24.4375 8.40581 27.4733 13.0327 27.6199C13.0327 27.6199 13.8074 26.6777 14.4355 25.8821C11.7766 25.0866 10.7716 23.4117 10.7716 23.4117C11.0796 23.6272 11.5875 23.9067 11.63 23.9351C15.1638 25.914 20.1835 26.5624 24.6943 24.6678C25.427 24.3957 26.2436 23.9979 27.1019 23.4326C27.1019 23.4326 26.0551 25.1494 23.3125 25.924C23.9406 26.7196 24.6943 27.6199 24.6943 27.6199C29.3212 27.4733 31.1008 24.4375 31.1008 24.4375Z" fill="white"/>
</svg>
